<svg width="178" height="61" viewBox="0 0 178 61" fill="none" xmlns="http://www.w3.org/2000/svg">
<path d="M72.2779 38.553C71.1466 38.0457 70.3295 37.2848 69.701 36.3336C69.0724 35.3825 68.7582 34.3045 68.6953 33.0363H71.6494C71.7123 34.1143 72.2151 35.002 72.9693 35.6995C73.7236 36.397 74.8549 36.7141 76.112 36.7141C77.2433 36.7141 78.1233 36.4605 78.8147 36.0166C79.506 35.5093 79.8832 34.8752 79.8832 33.9875C79.8832 33.3534 79.6946 32.8461 79.3175 32.4657C78.9404 32.0852 78.4375 31.8316 77.809 31.6413C77.1805 31.4511 76.2377 31.2609 75.0435 31.0072H74.9178C73.7864 30.817 72.7808 30.5634 71.9637 30.1829C71.1466 29.8024 70.4552 29.2952 69.8895 28.5977C69.3867 27.9002 69.1353 26.949 69.1353 25.8076C69.1353 24.7297 69.3867 23.7785 69.9524 22.9542C70.5181 22.1299 71.2723 21.4958 72.2779 20.9885C73.2836 20.5447 74.4149 20.291 75.672 20.291C76.9919 20.291 78.1861 20.5447 79.1918 21.0519C80.2603 21.5592 81.0774 22.1933 81.643 23.081C82.2716 23.9688 82.5858 24.9833 82.5858 26.0613H79.6317C79.506 25.1101 79.0661 24.3492 78.3747 23.7785C77.6833 23.2079 76.7405 22.8908 75.672 22.8908C74.6035 22.8908 73.7236 23.1444 73.095 23.5883C72.4665 24.0322 72.1522 24.7297 72.1522 25.554C72.1522 26.1881 72.3408 26.632 72.7179 27.0124C73.095 27.3295 73.5978 27.6465 74.2264 27.8368C74.8549 28.027 75.7349 28.2172 76.9291 28.4708C78.1233 28.6611 79.1289 28.9781 80.0089 29.2952C80.8888 29.6122 81.5802 30.1829 82.1459 30.8804C82.7115 31.5779 82.963 32.5291 82.963 33.6704C82.963 34.7484 82.6487 35.6995 82.083 36.5873C81.5173 37.475 80.7002 38.1091 79.6317 38.6164C78.5632 39.1237 77.4319 39.3139 76.112 39.3139C74.6664 39.3773 73.3464 39.1237 72.2779 38.553Z" fill="#E60000"/>
<path d="M95.8474 26.2515C96.7902 26.8222 97.5444 27.5831 98.1101 28.6611C98.6758 29.739 98.9272 30.9438 98.9272 32.4022C98.9272 33.7972 98.6758 35.002 98.1101 36.0166C97.5444 37.0945 96.7902 37.9189 95.8474 38.4895C94.9046 39.0602 93.7732 39.3773 92.579 39.3773C91.3848 39.3773 90.3792 39.1236 89.5621 38.6164C88.745 38.1091 88.1793 37.4116 87.7394 36.5873L88.1165 35.9532V44.5769H85.2881V25.6174H87.7394L88.305 28.9781L87.6765 28.344C88.1793 27.5197 88.8079 26.8222 89.5621 26.2515C90.3792 25.7442 91.322 25.4906 92.5162 25.4906C93.7732 25.4272 94.8417 25.7442 95.8474 26.2515ZM90.0021 28.4074C89.3735 28.7879 88.9336 29.2952 88.6193 29.9927C88.305 30.6902 88.1165 31.4511 88.1165 32.3388C88.1165 33.2266 88.305 34.0509 88.6193 34.7484C88.9336 35.4459 89.4364 35.9532 90.0021 36.397C90.6306 36.7775 91.2591 36.9677 92.0762 36.9677C92.8305 36.9677 93.5218 36.7775 94.1504 36.397C94.7789 36.0166 95.2189 35.4459 95.5331 34.8118C95.8474 34.1143 96.036 33.3534 96.036 32.4656C96.036 31.5779 95.8474 30.817 95.5331 30.1195C95.2189 29.422 94.7789 28.9147 94.1504 28.5342C93.5218 28.1538 92.8305 27.9636 92.0762 27.9636C91.2591 27.8367 90.5677 28.027 90.0021 28.4074Z" fill="#E60000"/>
<path d="M104.019 38.4896C102.95 37.9189 102.133 37.0946 101.567 36.0166C101.002 34.9387 100.688 33.7339 100.688 32.4023C100.688 31.0073 101.002 29.8025 101.567 28.7245C102.133 27.6466 102.95 26.8857 104.019 26.315C105.087 25.7443 106.281 25.4272 107.601 25.4272C108.984 25.4272 110.178 25.7443 111.184 26.315C112.252 26.8857 113.07 27.71 113.635 28.7245C114.201 29.8025 114.515 31.0073 114.515 32.4023C114.515 33.7973 114.201 35.0021 113.635 36.0801C113.07 37.158 112.252 37.9189 111.184 38.553C110.115 39.1237 108.921 39.4408 107.601 39.4408C106.219 39.3774 105.024 39.0603 104.019 38.4896ZM109.675 36.3337C110.304 35.9532 110.744 35.446 111.058 34.7485C111.373 34.0509 111.561 33.29 111.561 32.4023C111.561 31.5146 111.373 30.7537 111.058 30.0561C110.744 29.3586 110.304 28.8514 109.675 28.4709C109.047 28.0904 108.356 27.9002 107.601 27.9002C106.847 27.9002 106.093 28.0904 105.527 28.4709C104.899 28.8514 104.459 29.3586 104.144 30.0561C103.83 30.7537 103.642 31.5146 103.642 32.4023C103.642 33.29 103.83 34.0509 104.144 34.7485C104.459 35.446 104.962 35.9532 105.527 36.3337C106.156 36.7141 106.847 36.9044 107.601 36.9044C108.356 36.9044 109.11 36.7141 109.675 36.3337Z" fill="#E60000"/>
<path d="M119.292 25.6174L119.795 28.9781L119.229 28.344C119.606 27.5197 120.172 26.8222 120.8 26.3783C121.429 25.8711 122.372 25.6808 123.566 25.6808H124.194V28.344H122.937C121.743 28.344 120.926 28.7245 120.36 29.4854C119.858 30.2463 119.543 31.2609 119.543 32.4657V39.3139H116.715V25.6174H119.292Z" fill="#E60000"/>
<path d="M126.08 21.7494H128.908V25.554H132.177V28.0269H128.908V35.1288C128.908 35.6995 129.034 36.08 129.223 36.2702C129.411 36.5238 129.788 36.5872 130.291 36.5872H132.491V39.1236H129.726C128.468 39.1236 127.526 38.8066 126.96 38.2359C126.394 37.6652 126.08 36.7141 126.08 35.4459V21.7494V21.7494Z" fill="#E60000"/>
<path d="M137.206 38.553C136.074 38.0457 135.257 37.2848 134.629 36.3336C134 35.3825 133.686 34.3045 133.623 33.0363H136.577C136.64 34.1143 137.143 35.002 137.897 35.6995C138.651 36.397 139.783 36.7141 141.04 36.7141C142.171 36.7141 143.051 36.4605 143.742 36.0166C144.434 35.5093 144.811 34.8752 144.811 33.9875C144.811 33.3534 144.622 32.8461 144.245 32.4657C143.868 32.0852 143.365 31.8316 142.737 31.6413C142.108 31.4511 141.165 31.2609 139.971 31.0072H139.846C138.714 30.817 137.708 30.5634 136.891 30.1829C136.074 29.8024 135.383 29.2952 134.817 28.5977C134.314 27.9002 134.063 26.949 134.063 25.8076C134.063 24.7297 134.314 23.7785 134.88 22.9542C135.446 22.1299 136.2 21.4958 137.206 20.9885C138.211 20.5447 139.343 20.291 140.6 20.291C141.92 20.291 143.114 20.5447 144.12 21.0519C145.188 21.5592 146.005 22.1933 146.571 23.081C147.199 23.9688 147.514 24.9833 147.514 26.0613H144.559C144.434 25.1101 143.994 24.3492 143.302 23.7785C142.611 23.2079 141.668 22.8908 140.6 22.8908C139.531 22.8908 138.651 23.1444 138.023 23.5883C137.394 24.0322 137.08 24.7297 137.08 25.554C137.08 26.1881 137.269 26.632 137.646 27.0124C138.023 27.3295 138.526 27.6465 139.154 27.8368C139.783 28.027 140.663 28.2172 141.857 28.4708C143.051 28.6611 144.057 28.9781 144.937 29.2952C145.817 29.6122 146.508 30.1829 147.074 30.8804C147.639 31.5779 147.891 32.5291 147.891 33.6704C147.891 34.7484 147.576 35.6995 147.011 36.5873C146.445 37.475 145.628 38.1091 144.559 38.6164C143.491 39.1237 142.36 39.3139 141.04 39.3139C139.594 39.3773 138.337 39.1237 137.206 38.553Z" fill="#E60000"/>
<path d="M153.044 38.4896C151.976 37.9189 151.159 37.0946 150.593 36.0801C150.027 35.0021 149.713 33.7973 149.713 32.4023C149.713 31.0073 149.964 29.7391 150.53 28.7245C151.096 27.71 151.85 26.8857 152.856 26.315C153.861 25.7443 154.993 25.4272 156.312 25.4272C157.632 25.4272 158.764 25.6809 159.769 26.1882C160.775 26.6954 161.529 27.4564 162.095 28.4709C162.661 29.4855 162.975 30.6268 162.975 31.895C162.975 32.0853 162.975 32.2121 162.975 32.4023C162.975 32.5925 162.975 32.7828 162.912 32.973H152.73C152.73 33.0364 152.73 33.0364 152.73 33.0364V33.0998C152.793 33.8607 152.918 34.5582 153.233 35.1289C153.547 35.6996 153.987 36.1435 154.553 36.4605C155.118 36.7776 155.747 36.9678 156.501 36.9678C157.381 36.9678 158.135 36.7776 158.701 36.3337C159.329 35.8898 159.707 35.3191 159.895 34.5582H162.786C162.598 35.446 162.284 36.2703 161.718 36.9678C161.152 37.6653 160.461 38.236 159.644 38.6798C158.764 39.0603 157.821 39.3139 156.752 39.3139C155.307 39.3774 154.05 39.0603 153.044 38.4896ZM154.741 28.1539C154.238 28.4075 153.798 28.788 153.484 29.2952C153.17 29.8025 152.918 30.3098 152.856 30.9439H160.084C159.958 29.9293 159.581 29.105 158.952 28.5977C158.324 28.027 157.444 27.7734 156.438 27.7734C155.81 27.71 155.244 27.8368 154.741 28.1539Z" fill="#E60000"/>
<path d="M168.066 38.4896C166.997 37.9189 166.18 37.0946 165.614 36.0801C165.049 35.0021 164.734 33.7973 164.734 32.4023C164.734 31.0073 164.986 29.7391 165.551 28.7245C166.117 27.71 166.871 26.8857 167.877 26.315C168.883 25.7443 170.014 25.4272 171.334 25.4272C172.654 25.4272 173.785 25.6809 174.791 26.1882C175.797 26.6954 176.551 27.4564 177.116 28.4709C177.682 29.4855 177.996 30.6268 177.996 31.895C177.996 32.0853 177.996 32.2121 177.996 32.4023C177.996 32.5925 177.996 32.7828 177.934 32.973H167.751C167.751 33.0364 167.751 33.0364 167.751 33.0364V33.0998C167.814 33.8607 167.94 34.5582 168.254 35.1289C168.568 35.6996 169.008 36.1435 169.574 36.4605C170.14 36.7776 170.768 36.9678 171.523 36.9678C172.402 36.9678 173.157 36.7776 173.722 36.3337C174.351 35.8898 174.728 35.3191 174.917 34.5582H177.808C177.619 35.446 177.305 36.2703 176.739 36.9678C176.174 37.6653 175.482 38.236 174.665 38.6798C173.785 39.0603 172.842 39.3139 171.774 39.3139C170.328 39.3774 169.134 39.0603 168.066 38.4896ZM169.763 28.1539C169.26 28.4075 168.82 28.788 168.506 29.2952C168.191 29.8025 167.94 30.3098 167.877 30.9439H175.105C174.979 29.9293 174.602 29.105 173.974 28.5977C173.345 28.027 172.465 27.7734 171.46 27.7734C170.831 27.71 170.265 27.8368 169.763 28.1539Z" fill="#E60000"/>
<path d="M29.5952 58.7027C45.3896 58.7027 58.1934 45.7855 58.1934 29.8514C58.1934 13.9172 45.3896 1 29.5952 1C13.8009 1 0.99707 13.9172 0.99707 29.8514C0.99707 45.7855 13.8009 58.7027 29.5952 58.7027Z" fill="#FF0101"/>
<path d="M41.9145 17.423C44.5527 17.423 46.6914 15.2654 46.6914 12.6039C46.6914 9.94239 44.5527 7.78479 41.9145 7.78479C39.2764 7.78479 37.1377 9.94239 37.1377 12.6039C37.1377 15.2654 39.2764 17.423 41.9145 17.423Z" fill="#020203"/>
<mask id="mask0_116_1099" style="mask-type:alpha" maskUnits="userSpaceOnUse" x="0" y="1" width="59" height="58">
<path d="M29.5952 58.7027C45.3896 58.7027 58.1934 45.7855 58.1934 29.8514C58.1934 13.9172 45.3896 1 29.5952 1C13.8009 1 0.99707 13.9172 0.99707 29.8514C0.99707 45.7855 13.8009 58.7027 29.5952 58.7027Z" fill="#FF0101"/>
</mask>
<g mask="url(#mask0_116_1099)">
<path d="M40.5313 30.4219C40.8455 30.9292 41.4112 31.2463 42.0397 31.2463C42.354 31.2463 42.6683 31.1829 42.9825 30.9926L51.5934 25.793C52.4734 25.2858 52.7248 24.1444 52.2219 23.3201C51.7191 22.4323 50.5878 22.1787 49.7707 22.686L42.6054 26.9978L39.1485 20.213C38.2057 19.2619 37.1372 18.3107 36.0687 17.4864L25.8236 12.2868C25.1323 11.9698 24.378 12.0332 23.8123 12.5404L15.2643 20.3398C14.5101 21.0373 14.4472 22.1787 15.1386 22.8762C15.83 23.6371 16.9614 23.7005 17.6527 23.003L25.3837 16.028L30.7262 18.7546L21.5496 33.0851L0.619547 58.0685C-0.197544 59.0197 -0.134691 60.5415 0.870959 61.3658C1.81376 62.1901 3.32223 62.1267 4.13932 61.1122L24.4409 37.4604L33.1775 39.4895L27.2064 48.9375C26.5779 50.0789 26.955 51.4739 28.0863 52.108C29.092 52.6787 30.4119 52.4251 31.1033 51.4105L38.7714 39.1725C39.2113 38.5384 39.2742 37.714 39.0228 37.0165C38.7085 36.319 38.1428 35.8118 37.3886 35.6849L30.6633 34.0997L36.7601 24.4614L40.5313 30.4219Z" fill="#020203"/>
</g>
</svg>
